<?xml version="1.0" encoding="UTF-8" standalone="no"?>
<!-- Uploaded to: SVG Repo, www.svgrepo.com, Transformed by: SVG Repo Mixer Tools -->

<svg
   width="800"
   height="800"
   viewBox="0 0 24 24"
   version="1.1"
   fill="#ffffff"
   stroke="#ffffff"
   id="svg1"
   sodipodi:docname="incognito_svgrepo_white.svg"
   inkscape:export-filename="incognito_svgrepo_white.svg"
   inkscape:export-xdpi="7.6799998"
   inkscape:export-ydpi="7.6799998"
   xmlns:inkscape="http://www.inkscape.org/namespaces/inkscape"
   xmlns:sodipodi="http://sodipodi.sourceforge.net/DTD/sodipodi-0.dtd"
   xmlns="http://www.w3.org/2000/svg"
   xmlns:svg="http://www.w3.org/2000/svg">
  <defs
     id="defs1" />
  <sodipodi:namedview
     id="namedview1"
     pagecolor="#505050"
     bordercolor="#eeeeee"
     borderopacity="1"
     inkscape:showpageshadow="0"
     inkscape:pageopacity="0"
     inkscape:pagecheckerboard="0"
     inkscape:deskcolor="#505050" />
  <g
     id="SVGRepo_iconCarrier">
    <!-- Uploaded to: SVG Repo, www.svgrepo.com, Transformed by: SVG Repo Mixer Tools -->
    <title
       id="title1">ic_fluent_incognito_24_filled</title>
    <desc
       id="desc1">Created with Sketch.</desc>
    <g
       id="ðŸ”-Product-Icons"
       stroke="none"
       stroke-width="1"
       fill="none"
       fill-rule="evenodd">
      <g
         id="ic_fluent_incognito_24_filled"
         fill="#ffffff"
         fill-rule="nonzero">
        <path
           d="m 17.5,11.75 c 2.623353,0 4.75,2.126647 4.75,4.75 0,2.623353 -2.126647,4.75 -4.75,4.75 -2.098013,0 -3.878337,-1.360187 -4.50724,-3.246827 H 11.00724 C 10.378337,19.889813 8.5980128,21.25 6.5,21.25 c -2.6233526,0 -4.75,-2.126647 -4.75,-4.75 0,-2.623353 2.1266474,-4.75 4.75,-4.75 2.4545808,0 4.474311,1.861816 4.724028,4.250286 h 1.551944 C 13.025689,13.611816 15.045419,11.75 17.5,11.75 Z m -11,2 c -1.5187831,0 -2.75,1.231217 -2.75,2.75 0,1.518783 1.2312169,2.75 2.75,2.75 1.5187831,0 2.75,-1.231217 2.75,-2.75 0,-1.518783 -1.2312169,-2.75 -2.75,-2.75 z m 11,0 c -1.518783,0 -2.75,1.231217 -2.75,2.75 0,1.518783 1.231217,2.75 2.75,2.75 1.518783,0 2.75,-1.231217 2.75,-2.75 0,-1.518783 -1.231217,-2.75 -2.75,-2.75 z M 15.511939,3 c 1.214422,0 2.28506,0.7965874 2.634022,1.9597933 l 1.006109,3.3511406 c 0.792549,0.1319112 1.568209,0.2871172 2.326969,0.4656489 0.537604,0.126495 0.870873,0.6648531 0.744378,1.2024565 C 22.096922,10.516643 21.558564,10.849912 21.020961,10.723417 18.265422,10.075055 15.258662,9.75 12,9.75 8.741338,9.75 5.7345779,10.075055 2.9790393,10.723417 2.4414359,10.849912 1.9030778,10.516643 1.7765828,9.9790393 1.6500879,9.4414359 1.9833572,8.9030778 2.5209607,8.7765828 3.2794021,8.598126 4.0547297,8.4429754 4.8469317,8.3111 L 5.854039,4.9597933 C 6.2030008,3.7965874 7.2736387,3 8.4880613,3 Z"
           id="ðŸŽ¨-Color" />
      </g>
    </g>
  </g>
</svg>
